<svg width="32" height="32" viewBox="0 0 32 32" fill="none" xmlns="http://www.w3.org/2000/svg">
<path d="M16 32C20.4333 32 24.2083 30.4417 27.325 27.325C30.4417 24.2083 32 20.4333 32 16C32 11.5667 30.4417 7.79167 27.325 4.675C24.2083 1.55833 20.4333 0 16 0C13.1667 0 10.6833 0.575 8.55 1.725C6.41667 2.875 4.56667 4.45 3 6.45V0H0V12.7H12.7V9.7H4.3C5.56667 7.7 7.18333 6.08333 9.15 4.85C11.1167 3.61667 13.4 3 16 3C19.6333 3 22.7083 4.25833 25.225 6.775C27.7417 9.29167 29 12.3667 29 16C29 19.6333 27.7417 22.7083 25.225 25.225C22.7083 27.7417 19.6333 29 16 29C13.2333 29 10.7 28.2083 8.4 26.625C6.1 25.0417 4.5 22.95 3.6 20.35H0.5C1.46667 23.85 3.38333 26.6667 6.25 28.8C9.11667 30.9333 12.3667 32 16 32Z" fill="white"/>
</svg>
