<svg width="32" height="32" viewBox="0 0 32 32" fill="none" xmlns="http://www.w3.org/2000/svg">
<path d="M16 32C11.5667 32 7.79167 30.4417 4.675 27.325C1.55833 24.2083 0 20.4333 0 16C0 11.5667 1.55833 7.79167 4.675 4.675C7.79167 1.55833 11.5667 0 16 0C18.8333 0 21.3167 0.575 23.45 1.725C25.5833 2.875 27.4333 4.45 29 6.45V0H32V12.7H19.3V9.7H27.7C26.4333 7.7 24.8167 6.08333 22.85 4.85C20.8833 3.61667 18.6 3 16 3C12.3667 3 9.29167 4.25833 6.775 6.775C4.25833 9.29167 3 12.3667 3 16C3 19.6333 4.25833 22.7083 6.775 25.225C9.29167 27.7417 12.3667 29 16 29C18.7667 29 21.3 28.2083 23.6 26.625C25.9 25.0417 27.5 22.95 28.4 20.35H31.5C30.5333 23.85 28.6167 26.6667 25.75 28.8C22.8833 30.9333 19.6333 32 16 32Z" fill="white"/>
</svg>
